<?xml version="1.0" encoding="UTF-8" standalone="no"?>
<!DOCTYPE svg PUBLIC "-//W3C//DTD SVG 1.1//EN"
 "http://www.w3.org/Graphics/SVG/1.1/DTD/svg11.dtd">
<!-- Generated by graphviz version 2.43.0 (0)
 -->
<!-- Title: G Pages: 1 -->
<svg width="729pt" height="131pt"
 viewBox="0.00 0.00 729.00 131.00" xmlns="http://www.w3.org/2000/svg" xmlns:xlink="http://www.w3.org/1999/xlink">
<g id="graph0" class="graph" transform="scale(1 1) rotate(0) translate(4 127)">
<title>G</title>
<polygon fill="white" stroke="transparent" points="-4,4 -4,-127 725,-127 725,4 -4,4"/>
<!-- node0 -->
<g id="node1" class="node">
<title>node0</title>
<polygon fill="#f9f9f9" stroke="black" points="483,-123 240,-123 240,-87 483,-87 483,-123"/>
<text text-anchor="middle" x="361.5" y="-101.3" font-family="Arial" font-size="14.00" fill="#1a1919">0 &lt;bytecode addNatural at 51fe41ec&gt;</text>
</g>
<!-- node1 -->
<g id="node2" class="node">
<title>node1</title>
<polygon fill="#f9f9f9" stroke="black" points="229,-36 0,-36 0,0 229,0 229,-36"/>
<text text-anchor="middle" x="114.5" y="-14.3" font-family="Arial" font-size="14.00" fill="#1a1919">1 &lt;bytecode __init__ at 72348441&gt;</text>
</g>
<!-- node0&#45;&gt;node1 -->
<g id="edge1" class="edge">
<title>node0&#45;&gt;node1</title>
<path fill="none" stroke="#3cb4a4" d="M311.81,-86.9C271.95,-73.18 215.88,-53.89 173.7,-39.37"/>
<polygon fill="#3cb4a4" stroke="#3cb4a4" points="174.7,-36.02 164.11,-36.07 172.42,-42.64 174.7,-36.02"/>
<text text-anchor="middle" x="277.5" y="-57.8" font-family="arial" font-size="14.00" fill="#3cb4a4">children</text>
</g>
<!-- node2 -->
<g id="node3" class="node">
<title>node2</title>
<polygon fill="#f9f9f9" stroke="black" points="476,-36 247,-36 247,0 476,0 476,-36"/>
<text text-anchor="middle" x="361.5" y="-14.3" font-family="Arial" font-size="14.00" fill="#1a1919">2 &lt;bytecode __init__ at 72348441&gt;</text>
</g>
<!-- node0&#45;&gt;node2 -->
<g id="edge2" class="edge">
<title>node0&#45;&gt;node2</title>
<path fill="none" stroke="#3cb4a4" d="M361.5,-86.8C361.5,-75.16 361.5,-59.55 361.5,-46.24"/>
<polygon fill="#3cb4a4" stroke="#3cb4a4" points="365,-46.18 361.5,-36.18 358,-46.18 365,-46.18"/>
<text text-anchor="middle" x="385.5" y="-57.8" font-family="arial" font-size="14.00" fill="#3cb4a4">children</text>
</g>
<!-- node3 -->
<g id="node4" class="node">
<title>node3</title>
<polygon fill="#f9f9f9" stroke="black" points="721,-36 494,-36 494,0 721,0 721,-36"/>
<text text-anchor="middle" x="607.5" y="-14.3" font-family="Arial" font-size="14.00" fill="#1a1919">3 &lt;bytecode __add__ at 5759ff37&gt;</text>
</g>
<!-- node0&#45;&gt;node3 -->
<g id="edge3" class="edge">
<title>node0&#45;&gt;node3</title>
<path fill="none" stroke="#3cb4a4" d="M410.99,-86.9C450.69,-73.18 506.53,-53.89 548.54,-39.37"/>
<polygon fill="#3cb4a4" stroke="#3cb4a4" points="549.78,-42.65 558.09,-36.07 547.5,-36.03 549.78,-42.65"/>
<text text-anchor="middle" x="522.5" y="-57.8" font-family="arial" font-size="14.00" fill="#3cb4a4">children</text>
</g>
</g>
</svg>
